Coordinates
version=1
nRows=6
nColumns=36
inDegrees=yes

Units are S.I. units (second, meters, Newtons, ...)
If the header above contains a line with 'inDegrees', this indicates whether rotational values are in degrees (yes) or radians (no).

endheader
time	pelvis_tilt	pelvis_list	pelvis_rotation	pelvis_tx	pelvis_ty	pelvis_tz	hip_flexion_r	hip_adduction_r	hip_rotation_r	knee_angle_r	knee_angle_r_beta	ankle_angle_r	subtalar_angle_r	mtp_angle_r	hip_flexion_l	hip_adduction_l	hip_rotation_l	knee_angle_l	knee_angle_l_beta	ankle_angle_l	subtalar_angle_l	mtp_angle_l	lumbar_extension	lumbar_bending	lumbar_rotation	arm_flex_r	arm_add_r	arm_rot_r	elbow_flex_r	pro_sup_r	arm_flex_l	arm_add_l	arm_rot_l	elbow_flex_l	pro_sup_l
      3.42500000	    -20.21408713	     -0.43581277	      1.65306073	      0.03223762	      0.69003751	     -0.06556018	     76.81271128	    -16.14366044	     -0.39760156	     87.40624040	      1.52552668	     28.93176929	     -7.70642602	     -7.49999987	     76.62740930	     -3.92537972	      5.53226551	     88.96544855	      1.55274000	     27.37847703	    -10.08262759	     -7.49999987	    -51.71273445	      5.75525413	     -2.81053403	     27.22302213	    -23.63290514	     -3.53234156	     32.12938314	     81.69518461	     30.32091687	    -19.01270070	      5.22448977	     38.20810660	     69.60303386
      3.42916670	    -20.23401561	     -0.17087918	      1.73517184	      0.03403761	      0.69067364	     -0.06682024	     76.98519027	    -16.42025356	     -0.09838060	     87.66573335	      1.53005569	     29.29484711	     -7.12621246	     -7.49999987	     76.57199118	     -3.65452320	      5.31649472	     89.06640350	      1.55450199	     27.63154520	    -10.10042207	     -7.49999987	    -51.32390016	      5.96382694	     -2.96582672	     26.44989307	    -23.39442301	     -3.30887566	     30.56367343	     81.77057982	     29.21707286	    -18.77941315	      5.75841960	     36.18065829	     69.79855979
      3.43333330	    -19.95943120	     -0.08593773	      1.77817127	      0.03540909	      0.69139701	     -0.06331557	     76.60762481	    -16.33225399	      0.04147328	     87.73826435	      1.53132159	     29.41139535	     -7.38430258	     -7.49999987	     76.05757741	     -3.59944572	      5.34615341	     88.95113782	      1.55249023	     27.72740815	    -10.29928345	     -7.49999987	    -51.83549560	      6.08297001	     -2.88909331	     25.29078858	    -23.33197146	     -3.26498984	     30.61563381	     81.34407622	     27.91627330	    -18.92224147	      5.84015585	     36.19525330	     69.54975380
      3.43750000	    -19.90741404	      0.21813443	      1.78491679	      0.03324279	      0.68939502	     -0.06208516	     76.85405557	    -16.24915411	      0.44200787	     88.04948916	      1.53675349	     29.45744014	     -7.68451524	     -7.49999987	     76.07051208	     -3.54987292	      5.06531735	     89.14692185	      1.55590730	     27.82204986	    -10.09013638	     -7.49999987	    -51.51000498	      6.05346023	     -3.00964822	     24.75252249	    -22.66480088	     -3.31890260	     28.55079232	     81.47444634	     27.56675923	    -19.14110942	      7.96187805	     33.29661345	     69.84735505
      3.44166670	    -20.24330677	      0.29844524	      1.65482121	      0.03002437	      0.69020809	     -0.06093904	     77.44024144	    -15.89578881	      0.60982884	     88.11879900	      1.53796318	     29.46041659	     -7.82878963	     -7.49999987	     76.56427333	     -3.64945498	      5.01062134	     89.20806026	      1.55697437	     27.61379052	    -10.18145630	     -7.49999987	    -51.38158819	      6.00931939	     -3.00363049	     23.83905257	    -21.98603717	     -3.87454720	     28.52905695	     80.99064299	     26.61375068	    -19.55026923	      8.82309895	     32.68917950	     69.69712176
      3.44583330	    -20.47565124	      0.30961710	      1.46440864	      0.03107398	      0.68879357	     -0.05281737	     77.88680330	    -15.18826484	      0.66624158	     88.32831022	      1.54161984	     29.59144680	     -8.26248346	     -7.49999987	     76.83694078	     -4.16047643	      5.16058385	     89.17660069	      1.55642530	     27.48400626	    -10.00399637	     -7.49999987	    -51.30974117	      5.56105715	     -2.10666404	     21.72541092	    -20.59782649	    -10.48234984	     29.45172525	     80.30864126	     26.92157305	    -20.31035508	     13.38385484	     30.80665824	     69.32307760
